<svg width="1280" height="720" viewBox="0 0 1280 720" fill="none" xmlns="http://www.w3.org/2000/svg">
<g clip-path="url(#clip0_43_402)">
<rect width="1280" height="720" fill="#5A8BFF"/>
<g opacity="0.8">
<path d="M1095.51 694.355L1214.16 613.73L1312.43 679.066L1071.52 840.258L830.58 679.05L1117.37 484.638L1163.49 515.494L931.557 677.421L929.18 679.081L931.576 680.714L1070.39 775.297L1071.45 776.021L1072.55 775.355L1146.42 730.619L1149.15 728.962L1146.46 727.228L1095.51 694.355Z" fill="#2A66F2" stroke="#2A66F2" stroke-width="4"/>
<path d="M996.568 467.291L1047.52 500.164L928.87 580.79L830.604 515.453L1071.52 354.261L1312.45 515.47L1025.66 709.882L979.546 679.026L1211.47 517.099L1213.85 515.439L1211.46 513.806L1072.64 419.222L1071.58 418.498L1070.48 419.164L996.616 463.9L993.88 465.557L996.568 467.291Z" fill="#2A66F2" stroke="#2A66F2" stroke-width="4"/>
<path d="M1217.74 419.613L1314.03 355.587V418.536L1265.09 451.691L1217.74 419.613Z" fill="#2A66F2" stroke="#2A66F2" stroke-width="4"/>
</g>
<g opacity="0.8">
<path d="M1124.48 693.5L1243.13 612.875L1341.4 678.211L1100.48 839.403L859.548 678.195L1146.34 483.783L1192.45 514.639L960.525 676.566L958.148 678.226L960.544 679.859L1099.36 774.442L1100.42 775.166L1101.52 774.5L1175.38 729.764L1178.12 728.107L1175.43 726.373L1124.48 693.5Z" stroke="#2A66F2" stroke-width="4"/>
<path d="M1025.54 466.436L1076.49 499.309L957.837 579.935L859.572 514.598L1100.48 353.406L1341.42 514.614L1054.63 709.027L1008.51 678.171L1240.44 516.244L1242.82 514.584L1240.42 512.951L1101.61 418.367L1100.55 417.643L1099.45 418.309L1025.58 463.045L1022.85 464.702L1025.54 466.436Z" stroke="#2A66F2" stroke-width="4"/>
<path d="M1246.71 418.757L1343 354.732V417.681L1294.06 450.836L1246.71 418.757Z" stroke="#2A66F2" stroke-width="4"/>
</g>
</g>
<defs>
<clipPath id="clip0_43_402">
<rect width="1280" height="720" fill="white"/>
</clipPath>
</defs>
</svg>
