<svg width="697" height="659" viewBox="0 0 697 659" fill="none" xmlns="http://www.w3.org/2000/svg">
<g opacity="0.8">
<path d="M398.573 458.664L559.268 349.862L692.571 438.173L367.557 654.849L42.5202 438.157L429.182 176.991L492.374 219.12L179.851 436.526L177.462 438.188L179.87 439.823L366.434 566.482L367.494 567.201L368.591 566.539L467.863 506.633L470.611 504.974L467.911 503.238L398.573 458.664Z" stroke="#2A66F2" stroke-width="4"/>
<path d="M40.9309 567.601L107.395 522.738L172.261 566.522L40.9309 653.529V567.601Z" stroke="#2A66F2" stroke-width="4"/>
<path d="M267.205 154.014L336.542 198.589L175.847 307.391L42.545 219.08L367.558 2.4037L692.595 219.096L305.933 480.262L242.741 438.133L555.264 220.727L557.653 219.065L555.245 217.43L368.682 90.7715L367.622 90.0519L366.525 90.7138L267.253 150.62L264.504 152.278L267.205 154.014Z" stroke="#2A66F2" stroke-width="4"/>
<path d="M562.854 90.7302L694.184 3.72408V89.6517L627.721 134.515L562.854 90.7302Z" stroke="#2A66F2" stroke-width="4"/>
</g>
<g opacity="0.8">
<path d="M359.643 459.809L520.337 351.007L653.64 439.318L328.627 655.994L3.58925 439.302L390.251 178.136L453.443 220.265L140.92 437.671L138.531 439.333L140.939 440.968L327.503 567.627L328.563 568.346L329.66 567.684L428.932 507.778L431.68 506.119L428.98 504.383L359.643 459.809Z" fill="#2A66F2" stroke="#2A66F2" stroke-width="4"/>
<path d="M2 568.746L68.4638 523.883L133.33 567.667L2 654.674V568.746Z" fill="#2A66F2" stroke="#2A66F2" stroke-width="4"/>
<path d="M228.273 155.16L297.61 199.734L136.916 308.536L3.6134 220.225L328.627 3.54872L653.664 220.241L267.002 481.407L203.81 439.278L516.332 221.872L518.721 220.21L516.313 218.575L329.75 91.9165L328.69 91.197L327.593 91.8588L228.321 151.765L225.573 153.423L228.273 155.16Z" fill="#2A66F2" stroke="#2A66F2" stroke-width="4"/>
<path d="M523.922 91.8753L655.253 4.86922V90.7968L588.789 135.66L523.922 91.8753Z" fill="#2A66F2" stroke="#2A66F2" stroke-width="4"/>
</g>
</svg>
