<svg width="236" height="157" viewBox="0 0 236 157" fill="none" xmlns="http://www.w3.org/2000/svg">
<path d="M234.338 88.6808C232.58 68.9494 229.684 65.1066 228.591 63.6613C226.076 60.3214 222.053 58.1388 217.795 55.8488C217.554 55.7215 217.346 55.5399 217.187 55.3185C217.029 55.0971 216.924 54.8418 216.881 54.5729C216.838 54.304 216.858 54.0287 216.939 53.7688C217.021 53.5089 217.161 53.2715 217.35 53.0753C218.139 52.2757 218.745 51.3147 219.127 50.2586C219.509 49.2025 219.657 48.0762 219.562 46.9572C219.379 44.9729 218.456 43.13 216.977 41.7942C215.498 40.4583 213.572 39.727 211.579 39.7453H203.962C203.635 39.7472 203.309 39.7684 202.985 39.8087C202.763 39.7123 202.532 39.6355 202.297 39.5792C197.785 30.0431 191.608 16.9865 178.805 10.6144C159.816 1.17104 124.836 0.682758 118 0.682758C111.164 0.682758 76.1834 1.17104 57.2185 10.5997C44.4158 16.9718 38.239 30.0285 33.7273 39.5646L33.6883 39.6427C33.4632 39.6743 33.2422 39.73 33.0291 39.8087C32.7051 39.7684 32.379 39.7472 32.0525 39.7453H24.4207C22.428 39.727 20.5011 40.4583 19.0224 41.7942C17.5436 43.13 16.6209 44.9729 16.4373 46.9572C16.3505 48.0736 16.5059 49.1956 16.8927 50.2464C17.2795 51.2973 17.8886 52.2523 18.6785 53.046C18.8674 53.2422 19.0082 53.4796 19.0897 53.7395C19.1713 53.9994 19.1913 54.2747 19.1482 54.5436C19.1051 54.8125 19.0001 55.0678 18.8415 55.2892C18.6828 55.5106 18.4749 55.6922 18.2342 55.8195C13.9763 58.1242 9.93337 60.3068 7.43826 63.632C6.34451 65.0968 3.45388 68.9201 1.69118 88.6515C0.714622 99.755 0.568138 111.249 1.33474 118.652C2.94118 134.032 5.95388 143.329 6.08083 143.715C6.54313 145.119 7.39411 146.363 8.53498 147.302C9.67585 148.242 11.0598 148.838 12.5261 149.023V149.12C12.5261 151.192 13.3492 153.179 14.8144 154.645C16.2795 156.11 18.2666 156.933 20.3386 156.933H47.6824C49.7544 156.933 51.7415 156.11 53.2067 154.645C54.6718 153.179 55.4949 151.192 55.4949 149.12C59.699 149.12 62.6238 148.368 65.7244 147.568C70.201 146.362 74.7765 145.559 79.3963 145.17C94.2937 143.749 109.108 143.261 118 143.261C126.711 143.261 142.179 143.749 157.101 145.17C161.739 145.559 166.333 146.365 170.827 147.577C173.796 148.339 176.613 149.042 180.514 149.115C180.514 151.187 181.338 153.175 182.803 154.64C184.268 156.105 186.255 156.928 188.327 156.928H215.671C217.743 156.928 219.73 156.105 221.195 154.64C222.66 153.175 223.483 151.187 223.483 149.115V149.057C224.953 148.876 226.341 148.281 227.486 147.341C228.63 146.401 229.484 145.156 229.948 143.749C230.075 143.363 233.088 134.067 234.694 118.686C235.461 111.278 235.324 99.8039 234.338 88.6808ZM47.8484 46.2443C51.7547 37.9435 56.2224 28.549 64.1765 24.589C75.6707 18.8664 99.4939 16.2882 118 16.2882C136.506 16.2882 160.329 18.8468 171.823 24.589C179.777 28.549 184.225 37.9484 188.151 46.2443L188.639 47.3038C188.925 47.9071 189.051 48.5734 189.006 49.2392C188.961 49.905 188.746 50.5482 188.382 51.1074C188.017 51.6666 187.516 52.1231 186.925 52.4334C186.334 52.7437 185.674 52.8975 185.007 52.88C168.781 52.4406 134.601 51.0343 118 51.0343C101.398 51.0343 67.2185 52.4748 50.9685 52.9142C50.3014 52.9317 49.6409 52.7779 49.0501 52.4676C48.4592 52.1573 47.9577 51.7007 47.5935 51.1416C47.2292 50.5824 47.0142 49.9392 46.9691 49.2734C46.924 48.6075 47.0502 47.9412 47.3357 47.338C47.5066 46.9767 47.6873 46.6105 47.8484 46.2443ZM53.6736 85.1261C45.2742 86.1372 36.8211 86.6362 28.3611 86.6203C23.1853 86.6203 17.8484 85.1554 16.8572 80.546C16.1785 77.4455 16.2517 75.7023 16.6179 73.9494C16.9256 72.4601 17.4138 71.3761 19.8552 70.9953C26.2029 70.0187 29.7527 71.2443 40.1433 74.3058C47.033 76.3322 52.0037 79.0324 54.8357 81.171C56.2566 82.2257 55.4998 84.9796 53.6736 85.1261ZM161.769 125.165C155.344 125.898 142.492 125.629 118.146 125.629C93.8006 125.629 80.9539 125.898 74.5281 125.165C67.8972 124.428 59.4451 118.158 65.2166 112.572C69.0593 108.891 78.0242 106.137 89.9627 104.589C101.901 103.041 106.955 102.245 118.097 102.245C129.24 102.245 133.781 102.734 146.232 104.594C158.683 106.454 168.093 109.242 170.978 112.577C176.242 118.554 168.395 124.389 161.769 125.194V125.165ZM219.142 80.5412C218.166 85.1701 212.795 86.6154 207.638 86.6154C199.017 86.6173 190.402 86.1184 181.838 85.1212C180.344 84.9796 179.65 82.3576 181.164 81.1662C183.952 78.9738 188.976 76.3273 195.856 74.3009C206.247 71.2394 212.238 70.0138 217.385 71.0343C218.639 71.2833 219.303 72.631 219.382 73.4757C219.726 75.8278 219.645 78.2227 219.142 80.546V80.5412Z" fill="#2A66F2"/>
</svg>
