<svg width="261" height="116" viewBox="0 0 261 116" fill="none" xmlns="http://www.w3.org/2000/svg">
<path d="M206.223 115.083C218.203 115.083 227.916 106.533 227.916 95.9857C227.916 85.4393 218.203 76.8893 206.223 76.8893C194.242 76.8893 184.531 85.4393 184.531 95.9857C184.531 106.533 194.242 115.083 206.223 115.083Z" fill="#FB5E84"/>
<path d="M54.375 115.083C66.3554 115.083 76.0676 106.533 76.0676 95.9857C76.0676 85.4393 66.3554 76.8893 54.375 76.8893C42.3944 76.8893 32.6824 85.4393 32.6824 95.9857C32.6824 106.533 42.3944 115.083 54.375 115.083Z" fill="#FB5E84"/>
<path d="M238.762 38.6946H227.916L206.223 0.5H86.9136L65.221 38.6946H21.8359C16.0827 38.6946 10.565 40.7062 6.49686 44.2875C2.42871 47.8696 0.143311 52.7268 0.143311 57.792V86.4375C0.143311 88.9696 1.28601 91.3991 3.32008 93.1893C5.35416 94.9804 8.11298 95.9857 10.9896 95.9857H21.8359C22.055 88.517 25.5793 81.4179 31.6576 76.2036C37.7359 70.9884 45.8875 68.0705 54.3747 68.0705C62.862 68.0705 71.0135 70.9884 77.0919 76.2036C83.1702 81.4179 86.6945 88.517 86.9136 95.9857H173.684C173.903 88.517 177.427 81.4179 183.506 76.2036C189.584 70.9884 197.735 68.0705 206.223 68.0705C214.71 68.0705 222.862 70.9884 228.94 76.2036C235.018 81.4179 238.543 88.517 238.762 95.9857H249.609C252.485 95.9857 255.243 94.9804 257.278 93.1893C259.311 91.3991 260.454 88.9696 260.454 86.4375V57.792C260.454 52.7268 258.168 47.8696 254.1 44.2875C250.032 40.7062 244.515 38.6946 238.762 38.6946ZM151.991 38.6946H86.9136L97.7596 19.5972H151.991V38.6946ZM173.684 38.6946V19.5972H195.376L206.223 38.6946H173.684Z" fill="#FB5E84"/>
</svg>
