<svg width="222" height="146" viewBox="0 0 222 146" fill="none" xmlns="http://www.w3.org/2000/svg">
<path fill-rule="evenodd" clip-rule="evenodd" d="M96.4218 11.2758L90.8833 7.8286C82.9795 2.90634 73.5353 0.263396 63.8529 0.26416H57.1008C52.6325 0.26416 48.1311 0.50692 43.9276 1.81783C17.6363 10.0329 -0.446498 40.0285 0.86641 108.079C1.1312 121.79 4.77203 136.939 18.8279 142.852C23.6227 144.881 28.8765 145.93 34.1966 145.921C40.1764 146.007 46.0509 144.53 51.0769 141.677C55.6003 139.075 59.5721 135.696 63.544 132.317C68.4425 128.141 73.3411 123.966 79.2547 121.266C85.6976 118.325 92.849 116.79 100.107 116.79H122.161C129.421 116.79 136.57 118.324 143.014 121.256C148.927 123.966 153.826 128.141 158.735 132.317C162.707 135.696 166.679 139.075 171.18 141.677C175.483 144.163 181.055 145.921 188.072 145.921C193.392 145.93 198.646 144.881 203.44 142.852C217.496 136.939 221.137 121.781 221.402 108.079C222.715 40.0285 204.632 10.0329 178.341 1.82754C174.126 0.506919 169.603 0.26416 165.156 0.26416H158.404C148.721 0.265596 139.276 2.91203 131.374 7.83832L125.835 11.2758C121.535 13.9537 116.397 15.3917 111.129 15.3917C105.861 15.3917 100.722 13.9537 96.4218 11.2758ZM163.535 39.106C165.729 39.106 167.834 39.8733 169.386 41.2391C170.937 42.6049 171.809 44.4573 171.809 46.3888C171.809 48.3203 170.937 50.1728 169.386 51.5385C167.834 52.9043 165.729 53.6716 163.535 53.6716C161.34 53.6716 159.235 52.9043 157.684 51.5385C156.132 50.1728 155.26 48.3203 155.26 46.3888C155.26 44.4573 156.132 42.6049 157.684 41.2391C159.235 39.8733 161.34 39.106 163.535 39.106ZM61.4808 41.5336C63.6754 41.5336 65.7801 42.3009 67.3319 43.6667C68.8837 45.0325 69.7555 46.8849 69.7555 48.8164V56.0993H78.0301C80.2246 56.0993 82.3293 56.8666 83.8811 58.2324C85.4329 59.5982 86.3047 61.4506 86.3047 63.3821C86.3047 65.3136 85.4329 67.166 83.8811 68.5318C82.3293 69.8976 80.2246 70.6649 78.0301 70.6649H69.7555V77.9478C69.7555 79.8793 68.8837 81.7317 67.3319 83.0975C65.7801 84.4633 63.6754 85.2306 61.4808 85.2306C59.2863 85.2306 57.1816 84.4633 55.6298 83.0975C54.078 81.7317 53.2062 79.8793 53.2062 77.9478V70.6649H44.9316C42.737 70.6649 40.6323 69.8976 39.0805 68.5318C37.5287 67.166 36.6569 65.3136 36.6569 63.3821C36.6569 61.4506 37.5287 59.5982 39.0805 58.2324C40.6323 56.8666 42.737 56.0993 44.9316 56.0993H53.2062V48.8164C53.2062 46.8849 54.078 45.0325 55.6298 43.6667C57.1816 42.3009 59.2863 41.5336 61.4808 41.5336ZM188.358 60.9545C188.358 62.886 187.487 64.7384 185.935 66.1042C184.383 67.47 182.278 68.2373 180.084 68.2373C177.889 68.2373 175.785 67.47 174.233 66.1042C172.681 64.7384 171.809 62.886 171.809 60.9545C171.809 59.023 172.681 57.1705 174.233 55.8047C175.785 54.4389 177.889 53.6716 180.084 53.6716C182.278 53.6716 184.383 54.4389 185.935 55.8047C187.487 57.1705 188.358 59.023 188.358 60.9545ZM146.985 68.2373C149.18 68.2373 151.285 67.47 152.836 66.1042C154.388 64.7384 155.26 62.886 155.26 60.9545C155.26 59.023 154.388 57.1705 152.836 55.8047C151.285 54.4389 149.18 53.6716 146.985 53.6716C144.791 53.6716 142.686 54.4389 141.134 55.8047C139.582 57.1705 138.711 59.023 138.711 60.9545C138.711 62.886 139.582 64.7384 141.134 66.1042C142.686 67.47 144.791 68.2373 146.985 68.2373ZM171.809 75.5202C171.809 73.5886 170.937 71.7362 169.386 70.3704C167.834 69.0046 165.729 68.2373 163.535 68.2373C161.34 68.2373 159.235 69.0046 157.684 70.3704C156.132 71.7362 155.26 73.5886 155.26 75.5202C155.26 77.4517 156.132 79.3041 157.684 80.6699C159.235 82.0357 161.34 82.803 163.535 82.803C165.729 82.803 167.834 82.0357 169.386 80.6699C170.937 79.3041 171.809 77.4517 171.809 75.5202Z" fill="#2A66F2"/>
</svg>
