<svg width="205" height="180" viewBox="0 0 205 180" fill="none" xmlns="http://www.w3.org/2000/svg">
<path d="M0.0385742 180V41.25H46.8946V0H157.645V82.5H204.501V180H117.321V138.75H87.2188V180H0.0385742ZM17.0771 165H46.8946V138.75H17.0771V165ZM17.0771 123.75H46.8946V97.5H17.0771V123.75ZM17.0771 82.5H46.8946V56.25H17.0771V82.5ZM63.9331 123.75H93.7505V97.5H63.9331V123.75ZM63.9331 82.5H93.7505V56.25H63.9331V82.5ZM63.9331 41.25H93.7505V15H63.9331V41.25ZM110.789 123.75H140.607V97.5H110.789V123.75ZM110.789 82.5H140.607V56.25H110.789V82.5ZM110.789 41.25H140.607V15H110.789V41.25ZM157.645 165H187.463V138.75H157.645V165ZM157.645 123.75H187.463V97.5H157.645V123.75Z" fill="#FB5E84"/>
</svg>
