<svg width="348" height="137" viewBox="0 0 348 137" fill="none" xmlns="http://www.w3.org/2000/svg">
<g opacity="0.8">
<path d="M200.983 229.172L279.471 176.029L344.269 218.957L183.668 326.024L23.0434 218.941L214.465 89.6472L244.261 109.511L89.3002 217.31L86.9112 218.972L89.319 220.606L182.545 283.897L183.605 284.617L184.701 283.955L234.307 254.02L237.056 252.361L234.355 250.625L200.983 229.172Z" stroke="#2A66F2" stroke-width="4"/>
<path d="M132.981 77.8024L166.353 99.2559L87.8645 152.398L23.0675 109.471L183.668 2.4037L344.293 109.487L152.871 238.781L123.075 218.916L278.035 111.118L280.424 109.456L278.017 107.822L184.791 44.5305L183.732 43.8109L182.635 44.4728L133.029 74.4077L130.28 76.0664L132.981 77.8024Z" stroke="#2A66F2" stroke-width="4"/>
<path d="M283.057 45.3454L345.882 3.72408V44.2669L313.671 66.0095L283.057 45.3454Z" stroke="#2A66F2" stroke-width="4"/>
</g>
<g opacity="0.8">
<path d="M181.529 229.744L260.017 176.602L324.814 219.529L164.214 326.596L3.58927 219.513L195.011 90.2194L224.807 110.084L69.8461 217.882L67.4571 219.544L69.8649 221.178L163.091 284.47L164.15 285.189L165.247 284.527L214.853 254.592L217.602 252.933L214.901 251.197L181.529 229.744Z" fill="#2A66F2" stroke="#2A66F2" stroke-width="4"/>
<path d="M113.526 78.3746L146.899 99.8281L68.4104 152.971L3.6134 110.043L164.214 2.97588L324.839 110.059L133.417 239.353L103.621 219.489L258.581 111.69L260.97 110.028L258.563 108.394L165.337 45.1026L164.277 44.3831L163.181 45.045L113.575 74.9798L110.826 76.6385L113.526 78.3746Z" fill="#2A66F2" stroke="#2A66F2" stroke-width="4"/>
<path d="M263.603 45.9176L326.428 4.29628V44.8391L294.217 66.5817L263.603 45.9176Z" fill="#2A66F2" stroke="#2A66F2" stroke-width="4"/>
</g>
</svg>
