<svg width="32" height="32" viewBox="0 0 32 32" fill="none" xmlns="http://www.w3.org/2000/svg">
<g id="Vector">
<path d="M22.25 10.6667L19 8.5L0 21.3333L16 32L32 21.3333L25.3333 16.9167L17.3333 22.3333L20.8333 24.5833L16 27.5L6.91666 21.3333L22.25 10.6667Z" fill="#3D5AFF"/>
<path d="M6.66667 27.5833L3.33333 25.3333L0 27.5833V32L6.66667 27.5833Z" fill="#3D5AFF"/>
<path d="M32 10.6667L16 0L0 10.6667L6.66667 15.0833L14.6667 9.66667L11.1667 7.41667L16 4.5L25.0833 10.6667L9.75 21.3333L13 23.5L32 10.6667Z" fill="#3D5AFF"/>
<path d="M32 4.41667V0L25.3333 4.41667L28.6667 6.66667L32 4.41667Z" fill="#3D5AFF"/>
</g>
</svg>
