<svg width="251" height="130" viewBox="0 0 251 130" fill="none" xmlns="http://www.w3.org/2000/svg">
<path d="M53.0187 129.167C38.6149 129.167 26.3386 124.696 16.19 115.756C6.04129 106.815 0.963492 96.0078 0.95655 83.3333C0.949608 70.6589 6.02741 59.8514 16.19 50.9108C26.3525 41.9703 38.6288 37.5 53.0187 37.5H173.803L152.978 19.1667H115.493V0.833336H152.718C155.495 0.833336 158.143 1.29167 160.663 2.20834C163.182 3.125 165.393 4.42361 167.295 6.10417L203.479 37.9583C217.015 38.875 228.295 43.6875 237.319 52.3958C246.343 61.1042 250.855 71.4167 250.855 83.3333C250.855 96.0139 245.777 106.824 235.622 115.765C225.466 124.706 213.19 129.173 198.793 129.167C184.396 129.161 172.12 124.69 161.964 115.756C151.809 106.821 146.731 96.0139 146.731 83.3333C146.731 80.5833 146.949 77.87 147.387 75.1933C147.824 72.5167 148.647 69.8828 149.854 67.2917L121.22 92.5H104.04C101.61 103.194 95.623 111.979 86.0783 118.854C76.5335 125.729 65.5137 129.167 53.0187 129.167ZM198.793 110.833C207.47 110.833 214.845 108.16 220.919 102.813C226.993 97.4653 230.03 90.9722 230.03 83.3333C230.03 75.6945 226.993 69.2014 220.919 63.8542C214.845 58.507 207.47 55.8333 198.793 55.8333C190.116 55.8333 182.74 58.507 176.666 63.8542C170.593 69.2014 167.556 75.6945 167.556 83.3333C167.556 90.9722 170.593 97.4653 176.666 102.813C182.74 108.16 190.116 110.833 198.793 110.833ZM53.0187 110.833C59.6133 110.833 65.5588 109.153 70.8553 105.792C76.1517 102.431 79.9245 98 82.1736 92.5H53.0187V74.1667H82.1736C79.9176 68.6667 76.1448 64.2361 70.8553 60.875C65.5657 57.5139 59.6202 55.8333 53.0187 55.8333C44.3417 55.8333 36.9662 58.507 30.8923 63.8542C24.8184 69.2014 21.7814 75.6945 21.7814 83.3333C21.7814 90.9722 24.8184 97.4653 30.8923 102.813C36.9662 108.16 44.3417 110.833 53.0187 110.833Z" fill="#2A66F2"/>
</svg>
