<svg width="236" height="157" viewBox="0 0 236 157" fill="none" xmlns="http://www.w3.org/2000/svg">
<path d="M234.338 88.696C232.58 68.9645 229.685 65.1218 228.591 63.6764C226.076 60.3366 222.053 58.154 217.795 55.8639C217.554 55.7366 217.346 55.5551 217.188 55.3337C217.029 55.1123 216.924 54.857 216.881 54.5881C216.838 54.3191 216.858 54.0439 216.939 53.784C217.021 53.5241 217.162 53.2867 217.351 53.0905C218.139 52.2909 218.745 51.3299 219.127 50.2738C219.509 49.2177 219.657 48.0914 219.563 46.9724C219.379 44.988 218.456 43.1452 216.977 41.8093C215.499 40.4735 213.572 39.7422 211.579 39.7604H203.962C203.635 39.7624 203.309 39.7836 202.985 39.8239C202.763 39.7275 202.533 39.6507 202.297 39.5944C197.785 30.0583 191.608 17.0016 178.806 10.6296C159.816 1.18622 124.836 0.697937 118 0.697937C111.164 0.697937 76.1836 1.18622 57.2188 10.6149C44.416 16.987 38.2393 30.0436 33.7276 39.5798L33.6885 39.6579C33.4635 39.6895 33.2425 39.7451 33.0293 39.8239C32.7053 39.7836 32.3792 39.7624 32.0528 39.7604H24.4209C22.4282 39.7422 20.5014 40.4735 19.0226 41.8093C17.5439 43.1452 16.6212 44.988 16.4375 46.9724C16.3508 48.0888 16.5061 49.2108 16.8929 50.2616C17.2797 51.3125 17.8889 52.2674 18.6787 53.0612C18.8677 53.2574 19.0085 53.4948 19.09 53.7547C19.1715 54.0146 19.1915 54.2898 19.1484 54.5588C19.1053 54.8277 19.0003 55.083 18.8417 55.3044C18.6831 55.5258 18.4752 55.7073 18.2344 55.8347C13.9766 58.1393 9.93362 60.322 7.4385 63.6472C6.34475 65.112 3.45412 68.9352 1.69143 88.6667C0.714866 99.7702 0.568382 111.264 1.33498 118.667C2.94143 134.048 5.95412 143.344 6.08108 143.73C6.54337 145.134 7.39436 146.378 8.53522 147.317C9.67609 148.257 11.06 148.853 12.5264 149.038V149.135C12.5264 151.207 13.3495 153.195 14.8146 154.66C16.2797 156.125 18.2669 156.948 20.3389 156.948H47.6826C49.7546 156.948 51.7418 156.125 53.2069 154.66C54.672 153.195 55.4951 151.207 55.4951 149.135C59.6992 149.135 62.6241 148.383 65.7246 147.583C70.2012 146.377 74.7768 145.575 79.3965 145.185C94.294 143.764 109.108 143.276 118 143.276C126.711 143.276 142.18 143.764 157.102 145.185C161.74 145.575 166.333 146.38 170.827 147.592C173.796 148.354 176.613 149.057 180.515 149.131C180.515 151.203 181.338 153.19 182.803 154.655C184.268 156.12 186.255 156.943 188.327 156.943H215.671C217.743 156.943 219.73 156.12 221.195 154.655C222.66 153.19 223.483 151.203 223.483 149.131V149.072C224.953 148.891 226.341 148.296 227.486 147.356C228.631 146.417 229.485 145.171 229.948 143.764C230.075 143.379 233.088 134.082 234.694 118.701C235.461 111.294 235.324 99.819 234.338 88.696ZM47.8487 46.2595C51.7549 37.9587 56.2227 28.5642 64.1768 24.6042C75.6709 18.8815 99.4942 16.3034 118 16.3034C136.506 16.3034 160.329 18.862 171.823 24.6042C179.777 28.5642 184.226 37.9636 188.151 46.2595L188.64 47.319C188.925 47.9222 189.051 48.5885 189.006 49.2544C188.961 49.9202 188.746 50.5634 188.382 51.1226C188.018 51.6817 187.516 52.1383 186.925 52.4486C186.334 52.7589 185.674 52.9126 185.007 52.8952C168.781 52.4557 134.602 51.0495 118 51.0495C101.398 51.0495 67.2188 52.4899 50.9688 52.9294C50.3016 52.9468 49.6411 52.7931 49.0503 52.4827C48.4595 52.1724 47.958 51.7159 47.5937 51.1568C47.2294 50.5976 47.0144 49.9544 46.9693 49.2886C46.9242 48.6227 47.0504 47.9564 47.336 47.3532C47.5069 46.9919 47.6875 46.6257 47.8487 46.2595ZM53.6739 85.1413C45.2745 86.1524 36.8214 86.6514 28.3613 86.6354C23.1856 86.6354 17.8487 85.1706 16.8574 80.5612C16.1787 77.4606 16.252 75.7175 16.6182 73.9645C16.9258 72.4753 17.4141 71.3913 19.8555 71.0104C26.2031 70.0339 29.753 71.2595 40.1436 74.321C47.0332 76.3474 52.0039 79.0475 54.836 81.1862C56.2569 82.2409 55.5 84.9948 53.6739 85.1413ZM161.77 125.18C155.344 125.913 142.492 125.644 118.146 125.644C93.8008 125.644 80.9541 125.913 74.5283 125.18C67.8975 124.443 59.4453 118.174 65.2168 112.588C69.0596 108.906 78.0244 106.152 89.9629 104.604C101.901 103.056 106.955 102.26 118.098 102.26C129.24 102.26 133.781 102.749 146.232 104.609C158.684 106.469 168.093 109.258 170.979 112.592C176.242 118.569 168.396 124.404 161.77 125.21V125.18ZM219.143 80.5563C218.166 85.1852 212.795 86.6305 207.639 86.6305C199.017 86.6325 190.402 86.1336 181.838 85.1364C180.344 84.9948 179.65 82.3727 181.164 81.1813C183.952 78.9889 188.977 76.3425 195.856 74.3161C206.247 71.2546 212.238 70.029 217.385 71.0495C218.64 71.2985 219.304 72.6462 219.382 73.4909C219.727 75.843 219.646 78.2379 219.143 80.5612V80.5563Z" fill="#FB5E84"/>
</svg>
